# xmcd CD database file
#
# Track frame offsets:
#	180
#	12756
#	25097
#	39423
#	55120
#	69712
#	83715
#	97472
#	111185
#	125843
#	139898
#	153442
#	168704
#	183318
#	196794
#	211338
#	224733
#	239205
#	253587
#	266972
#
# Disc length: 3715 seconds
#
# Revision: 0
# Processed by: cddbd v1.5.2PL0 Copyright (c) Steve Scherf et al.
# Submitted via: cdripper 1,0,39,0213
#
DISCID=360e8114
DTITLE=Clarence Williams - New Orleans Pioneer - 1923-1941
DYEAR=1999
DGENRE=Jazz
TTITLE0=Candy Lips
TTITLE1=I Can't Beat You Doin' What You're Doin' Me
TTITLE2=Chizzlin' Sam
TTITLE3=Down Hearted Blues
TTITLE4=Log Cabin Blues
TTITLE5=You're Bound to Look Like A Monkey When You Get Old
TTITLE6=A Pane in the Glass
TTITLE7=Walk That Broad
TTITLE8=Trouble
TTITLE9=You Ain't Too Old
TTITLE10=Close Fit Blues
TTITLE11=West End Blues
TTITLE12=Lazy Mama
TTITLE13=He Woudn't Stop Doin' It
TTITLE14=Worn Out Blues
TTITLE15=Chocolate Avenue
TTITLE16=HAve You Ever Felt That Way
TTITLE17=Organ Grinder Blues
TTITLE18=Milk Cow Blues
TTITLE19=Thriller Blues
EXTD=YEAR: 1999
EXTT0=
EXTT1=
EXTT2=
EXTT3=
EXTT4=
EXTT5=
EXTT6=
EXTT7=
EXTT8=
EXTT9=
EXTT10=
EXTT11=
EXTT12=
EXTT13=
EXTT14=
EXTT15=
EXTT16=
EXTT17=
EXTT18=
EXTT19=
PLAYORDER=
